# Made in Blockbench 5.0.7
mtllib base_pipe.mtl

o core
v 0.632583 0.5 0.367417
v 0.5 0.5 0.3125
v 0.5 0.632582 0.367417
v 0.5 0.6875 0.5
v 0.632583 0.632582 0.5
v 0.6875 0.5 0.5
v 0.5 0.3125 0.5
v 0.5 0.367417 0.632583
v 0.367418 0.367417 0.5
v 0.367418 0.5 0.632583
v 0.5 0.5 0.6875
v 0.3125 0.5 0.5
v 0.5 0.3125 0.5
v 0.367418 0.367417 0.5
v 0.5 0.367417 0.367417
v 0.5 0.5 0.3125
v 0.367418 0.5 0.367417
v 0.3125 0.5 0.5
v 0.632583 0.367417 0.5
v 0.5 0.3125 0.5
v 0.5 0.367417 0.367417
v 0.632583 0.5 0.367417
v 0.5 0.5 0.3125
v 0.6875 0.5 0.5
v 0.632583 0.367417 0.5
v 0.5 0.367417 0.632583
v 0.5 0.3125 0.5
v 0.6875 0.5 0.5
v 0.632583 0.5 0.632583
v 0.5 0.5 0.6875
v 0.5 0.5 0.6875
v 0.632583 0.5 0.632583
v 0.5 0.632582 0.632583
v 0.5 0.6875 0.5
v 0.632583 0.632582 0.5
v 0.6875 0.5 0.5
v 0.3125 0.5 0.5
v 0.367418 0.5 0.632583
v 0.367418 0.632582 0.5
v 0.5 0.632582 0.632583
v 0.5 0.5 0.6875
v 0.5 0.6875 0.5
v 0.5 0.5 0.3125
v 0.367418 0.5 0.367417
v 0.5 0.632582 0.367417
v 0.3125 0.5 0.5
v 0.367418 0.632582 0.5
v 0.5 0.6875 0.5
vt 0.5 0.5
vt 0.625 0.625
vt 0.375 0.625
vt 0.25 0.5
vt 0.375 0.375
vt 0.375 0.625
vt 0.375 0.625
vt 0.375 0.375
vt 0.5 0.5
vt 0.375 0.375
vt 0.625 0.375
vt 0.5 0.5
vt 0.25 0.5
vt 0.375 0.375
vt 0.375 0.625
vt 0.5 0.5
vt 0.375 0.375
vt 0.625 0.375
vt 0.375 0.375
vt 0.5 0.5
vt 0.375 0.625
vt 0.375 0.625
vt 0.5 0.5
vt 0.625 0.625
vt 0.25 0.5
vt 0.375 0.375
vt 0.375 0.625
vt 0.625 0.625
vt 0.375 0.625
vt 0.5 0.5
vt 0.375 0.625
vt 0.375 0.375
vt 0.5 0.5
vt 0.375 0.375
vt 0.625 0.375
vt 0.5 0.5
vt 0.375 0.625
vt 0.25 0.5
vt 0.375 0.375
vt 0.5 0.5
vt 0.375 0.375
vt 0.625 0.375
vt 0.375 0.375
vt 0.5 0.5
vt 0.375 0.625
vt 0.625 0.625
vt 0.375 0.625
vt 0.5 0.5
vt 0.375 0.375
vt 0.375 0.625
vt 0.25 0.5
vt 0.625 0.375
vt 0.5 0.5
vt 0.375 0.375
vt 0.375 0.625
vt 0.375 0.375
vt 0.5 0.5
vt 0.5 0.5
vt 0.625 0.625
vt 0.375 0.625
vt 0.625 0.375
vt 0.5 0.5
vt 0.375 0.375
vt 0.25 0.5
vt 0.375 0.375
vt 0.375 0.625
vt 0.375 0.625
vt 0.5 0.5
vt 0.625 0.625
vt 0.5 0.5
vt 0.375 0.625
vt 0.375 0.375
vt 0.625 0.375
vt 0.5 0.5
vt 0.375 0.375
vt 0.5 0.5
vt 0.375 0.625
vt 0.375 0.375
vt 0.5 0.5
vt 0.625 0.625
vt 0.375 0.625
vt 0.375 0.375
vt 0.375 0.625
vt 0.25 0.5
vt 0.625 0.375
vt 0.5 0.5
vt 0.375 0.375
vt 0.625 0.625
vt 0.375 0.625
vt 0.5 0.5
vt 0.5 0.5
vt 0.375 0.625
vt 0.375 0.375
vt 0.375 0.625
vt 0.25 0.5
vt 0.375 0.375
vn 0.3574031209169473 0.35740581663070115 -0.8628580945887728
vn 0.35740831064862166 0.8628549118818278 -0.35740831064862166
vn 0.5773488176344393 0.5773531722890503 -0.5773488176344393
vn 0.8628580945887728 0.35740581663070115 -0.3574031209169473
vn -0.35740581663070126 -0.8628580945887729 0.3574031209169473
vn -0.35740581663070126 -0.35740312091694737 0.8628580945887728
vn -0.5773531722890504 -0.5773488176344393 0.5773488176344392
vn -0.8628549118818276 -0.3574083106486219 0.35740831064862183
vn -0.35740581663070126 -0.8628580945887729 -0.3574031209169473
vn -0.35740581663070126 -0.35740312091694737 -0.8628580945887728
vn -0.5773531722890504 -0.5773488176344393 -0.5773488176344392
vn -0.8628549118818276 -0.3574083106486219 -0.35740831064862183
vn 0.35740346526110667 -0.8628589259193568 -0.35740346526110667
vn 0.35740346526110667 -0.3574034652611067 -0.8628589259193568
vn 0.5773502691896257 -0.5773502691896258 -0.5773502691896257
vn 0.8628589259193568 -0.3574034652611067 -0.35740346526110667
vn 0.35740346526110667 -0.8628589259193568 0.35740346526110667
vn 0.8628589259193568 -0.3574034652611067 0.35740346526110667
vn 0.5773502691896257 -0.5773502691896258 0.5773502691896257
vn 0.35740346526110667 -0.3574034652611067 0.8628589259193568
vn 0.3574031209169473 0.35740581663070115 0.8628580945887728
vn 0.35740831064862166 0.8628549118818278 0.35740831064862166
vn 0.8628580945887728 0.35740581663070115 0.3574031209169473
vn 0.5773488176344393 0.5773531722890503 0.5773488176344393
vn -0.8628540805325701 0.35741066204075733 0.35740796629045724
vn -0.5773517207338641 0.5773517207338639 0.5773473660902012
vn -0.35740547228493996 0.35740547228493985 0.8628572632605916
vn -0.3574106620407573 0.8628540805325702 0.3574079662904571
vn -0.35740547228493996 0.35740547228493985 -0.8628572632605916
vn -0.8628540805325701 0.35741066204075733 -0.35740796629045724
vn -0.5773517207338641 0.5773517207338639 -0.5773473660902012
vn -0.3574106620407573 0.8628540805325702 -0.3574079662904571
usemtl m_0
f 1/1/1 2/2/1 3/3/1
f 4/4/2 5/5/2 3/6/2
f 3/7/3 5/8/3 1/9/3
f 5/10/4 6/11/4 1/12/4
f 7/13/5 8/14/5 9/15/5
f 10/16/6 8/17/6 11/18/6
f 8/19/7 10/20/7 9/21/7
f 9/22/8 10/23/8 12/24/8
f 13/25/9 14/26/9 15/27/9
f 16/28/10 15/29/10 17/30/10
f 15/31/11 14/32/11 17/33/11
f 14/34/12 18/35/12 17/36/12
f 19/37/13 20/38/13 21/39/13
f 22/40/14 21/41/14 23/42/14
f 21/43/15 22/44/15 19/45/15
f 24/46/16 19/47/16 22/48/16
f 25/49/17 26/50/17 27/51/17
f 28/52/18 29/53/18 25/54/18
f 26/55/19 25/56/19 29/57/19
f 29/58/20 30/59/20 26/60/20
f 31/61/21 32/62/21 33/63/21
f 34/64/22 33/65/22 35/66/22
f 35/67/23 32/68/23 36/69/23
f 32/70/24 35/71/24 33/72/24
f 37/73/25 38/74/25 39/75/25
f 38/76/26 40/77/26 39/78/26
f 38/79/27 41/80/27 40/81/27
f 39/82/28 40/83/28 42/84/28
f 43/85/29 44/86/29 45/87/29
f 46/88/30 47/89/30 44/90/30
f 44/91/31 47/92/31 45/93/31
f 47/94/32 48/95/32 45/96/32