# Made in Blockbench 5.1.3
mtllib bearing_shaft.mtl

o cylinder
v 0.5 0.5 0.125
v 0.5 0.5000000000000001 0.875
v 0.629441875 0.1875 0.12500000000000006
v 0.629441875 0.1875000000000001 0.875
v 0.8125 0.37055812499999996 0.12500000000000006
v 0.8125 0.3705581250000001 0.875
v 0.8125 0.6294418749999999 0.12499999999999994
v 0.8125 0.6294418750000002 0.875
v 0.629441875 0.8125 0.12499999999999994
v 0.629441875 0.8125000000000001 0.875
v 0.37055812499999996 0.8125 0.12499999999999994
v 0.37055812499999996 0.8125000000000001 0.875
v 0.1875 0.6294418749999999 0.12499999999999994
v 0.1875 0.6294418750000002 0.875
v 0.1875 0.37055812499999996 0.12500000000000006
v 0.1875 0.3705581250000001 0.875
v 0.37055812499999996 0.1875 0.12500000000000006
v 0.37055812499999996 0.1875000000000001 0.875
vt 0.00017578125 0.9213337500000001
vt 0.06489609375 0.9213337500000001
vt 0.0325359375 0.9994590625
vt 0 0.734375
vt 0.0625 0.734375
vt 0.0625 0.921875
vt 0 0.921875
vt 0.00037109375 0.92150453125
vt 0.06509140625 0.92150453125
vt 0.03273125 0.99963
vt 0 0.92161453125
vt 0.064721875 0.92161453125
vt 0.0323609375 0.99973953125
vt 0 0.734375
vt 0.0625 0.734375
vt 0.0625 0.921875
vt 0 0.921875
vt 0 0.92161453125
vt 0.064721875 0.92161453125
vt 0.0323609375 0.99973953125
vt 0.00076171875 0.92130921875
vt 0.06548203125 0.92130921875
vt 0.033121875 0.9994346875
vt 0 0.734375
vt 0.0625 0.734375
vt 0.0625 0.921875
vt 0 0.921875
vt 0.00017578125 0.9213337500000001
vt 0.06489609375 0.9213337500000001
vt 0.0325359375 0.9994590625
vt 0.00026046875 0.921875
vt 0.06498234375 0.921875
vt 0.03262140625 1
vt 0 0.734375
vt 0.0625 0.734375
vt 0.0625 0.921875
vt 0 0.921875
vt 0.00026046875 0.92115890625
vt 0.06498234375 0.92115890625
vt 0.03262140625 0.99928390625
vt 0.00034671875 0.92150453125
vt 0.065066875 0.92150453125
vt 0.03270671875 0.99963
vt 0 0.734375
vt 0.0625 0.734375
vt 0.0625 0.921875
vt 0 0.921875
vt 0.00054203125 0.9215290625
vt 0.0652621875 0.9215290625
vt 0.03290203125 0.999654375
vt 0.00013015625 0.92141921875
vt 0.06485203125 0.92141921875
vt 0.03249109375 0.99954421875
vt 0 0.734375
vt 0.0625 0.734375
vt 0.0625 0.921875
vt 0 0.921875
vt 0.00013015625 0.92141921875
vt 0.06485203125 0.92141921875
vt 0.03249109375 0.99954421875
vt 0.00054203125 0.9215290625
vt 0.0652621875 0.9215290625
vt 0.03290203125 0.999654375
vt 0 0.734375
vt 0.0625 0.734375
vt 0.0625 0.921875
vt 0 0.921875
vt 0.00034671875 0.92150453125
vt 0.065066875 0.92150453125
vt 0.03270671875 0.99963
vt 0.00026046875 0.92115890625
vt 0.06498234375 0.92115890625
vt 0.03262140625 0.99928390625
vt 0 0.734375
vt 0.0625 0.734375
vt 0.0625 0.921875
vt 0 0.921875
vt 0.00026046875 0.92109375
vt 0.06498234375 0.92109375
vt 0.03262140625 0.99921875
vn 0 -2.220446049250313e-16 -1
vn 0.7071067811865476 -0.7071067811865476 1.5700924586837752e-16
vn 0 2.220446049250313e-16 1
vn 0 -2.220446049250313e-16 -1
vn 1 0 0
vn 0 2.220446049250313e-16 1
vn 0 -2.220446049250313e-16 -1
vn 0.7071067811865476 0.7071067811865476 -1.5700924586837752e-16
vn 0 2.220446049250313e-16 1
vn 0 -2.220446049250313e-16 -1
vn 0 1 -2.220446049250313e-16
vn 0 2.220446049250313e-16 1
vn 0 -2.220446049250313e-16 -1
vn -0.7071067811865476 0.7071067811865476 -1.5700924586837752e-16
vn 0 2.220446049250313e-16 1
vn 0 -2.220446049250313e-16 -1
vn -1 0 0
vn 0 2.220446049250313e-16 1
vn 0 -2.220446049250313e-16 -1
vn -0.7071067811865476 -0.7071067811865476 1.5700924586837752e-16
vn 0 2.220446049250313e-16 1
vn 0 -2.220446049250313e-16 -1
vn 0 -1 2.220446049250313e-16
vn 0 2.220446049250313e-16 1
usemtl m_c4d6c83d-ce62-88c4-5483-5eee1517a67c
f 5/1/1 3/2/1 1/3/1
f 3/4/2 5/5/2 6/6/2 4/7/2
f 4/8/3 6/9/3 2/10/3
f 7/11/4 5/12/4 1/13/4
f 5/14/5 7/15/5 8/16/5 6/17/5
f 6/18/6 8/19/6 2/20/6
f 9/21/7 7/22/7 1/23/7
f 7/24/8 9/25/8 10/26/8 8/27/8
f 8/28/9 10/29/9 2/30/9
f 11/31/10 9/32/10 1/33/10
f 9/34/11 11/35/11 12/36/11 10/37/11
f 10/38/12 12/39/12 2/40/12
f 13/41/13 11/42/13 1/43/13
f 11/44/14 13/45/14 14/46/14 12/47/14
f 12/48/15 14/49/15 2/50/15
f 15/51/16 13/52/16 1/53/16
f 13/54/17 15/55/17 16/56/17 14/57/17
f 14/58/18 16/59/18 2/60/18
f 17/61/19 15/62/19 1/63/19
f 15/64/20 17/65/20 18/66/20 16/67/20
f 16/68/21 18/69/21 2/70/21
f 3/71/22 17/72/22 1/73/22
f 17/74/23 3/75/23 4/76/23 18/77/23
f 18/78/24 4/79/24 2/80/24