# Made in Blockbench 5.0.7
mtllib pipe_test.mtl

o core
v 0.257583 0.5 -0.007583000000000006
v 0.125 0.5 -0.0625
v 0.125 0.632582 -0.007583000000000006
v 0.125 0.6875 0.125
v 0.257583 0.632582 0.125
v 0.3125 0.5 0.125
v 0.125 0.3125 0.125
v 0.125 0.367417 0.257583
v -0.007581999999999978 0.367417 0.125
v -0.007581999999999978 0.5 0.257583
v 0.125 0.5 0.3125
v -0.0625 0.5 0.125
v 0.125 0.3125 0.125
v -0.007581999999999978 0.367417 0.125
v 0.125 0.367417 -0.007583000000000006
v 0.125 0.5 -0.0625
v -0.007581999999999978 0.5 -0.007583000000000006
v -0.0625 0.5 0.125
v 0.257583 0.367417 0.125
v 0.125 0.3125 0.125
v 0.125 0.367417 -0.007583000000000006
v 0.257583 0.5 -0.007583000000000006
v 0.125 0.5 -0.0625
v 0.3125 0.5 0.125
v 0.257583 0.367417 0.125
v 0.125 0.367417 0.257583
v 0.125 0.3125 0.125
v 0.3125 0.5 0.125
v 0.257583 0.5 0.257583
v 0.125 0.5 0.3125
v 0.125 0.5 0.3125
v 0.257583 0.5 0.257583
v 0.125 0.632582 0.257583
v 0.125 0.6875 0.125
v 0.257583 0.632582 0.125
v 0.3125 0.5 0.125
v -0.0625 0.5 0.125
v -0.007581999999999978 0.5 0.257583
v -0.007581999999999978 0.632582 0.125
v 0.125 0.632582 0.257583
v 0.125 0.5 0.3125
v 0.125 0.6875 0.125
v 0.125 0.5 -0.0625
v -0.007581999999999978 0.5 -0.007583000000000006
v 0.125 0.632582 -0.007583000000000006
v -0.0625 0.5 0.125
v -0.007581999999999978 0.632582 0.125
v 0.125 0.6875 0.125
vt 0.5 0.5
vt 0.625 0.625
vt 0.375 0.625
vt 0.25 0.5
vt 0.375 0.375
vt 0.375 0.625
vt 0.375 0.625
vt 0.375 0.375
vt 0.5 0.5
vt 0.375 0.375
vt 0.625 0.375
vt 0.5 0.5
vt 0.25 0.5
vt 0.375 0.375
vt 0.375 0.625
vt 0.5 0.5
vt 0.375 0.375
vt 0.625 0.375
vt 0.375 0.375
vt 0.5 0.5
vt 0.375 0.625
vt 0.375 0.625
vt 0.5 0.5
vt 0.625 0.625
vt 0.25 0.5
vt 0.375 0.375
vt 0.375 0.625
vt 0.625 0.625
vt 0.375 0.625
vt 0.5 0.5
vt 0.375 0.625
vt 0.375 0.375
vt 0.5 0.5
vt 0.375 0.375
vt 0.625 0.375
vt 0.5 0.5
vt 0.375 0.625
vt 0.25 0.5
vt 0.375 0.375
vt 0.5 0.5
vt 0.375 0.375
vt 0.625 0.375
vt 0.375 0.375
vt 0.5 0.5
vt 0.375 0.625
vt 0.625 0.625
vt 0.375 0.625
vt 0.5 0.5
vt 0.375 0.375
vt 0.375 0.625
vt 0.25 0.5
vt 0.625 0.375
vt 0.5 0.5
vt 0.375 0.375
vt 0.375 0.625
vt 0.375 0.375
vt 0.5 0.5
vt 0.5 0.5
vt 0.625 0.625
vt 0.375 0.625
vt 0.625 0.375
vt 0.5 0.5
vt 0.375 0.375
vt 0.25 0.5
vt 0.375 0.375
vt 0.375 0.625
vt 0.375 0.625
vt 0.5 0.5
vt 0.625 0.625
vt 0.5 0.5
vt 0.375 0.625
vt 0.375 0.375
vt 0.625 0.375
vt 0.5 0.5
vt 0.375 0.375
vt 0.5 0.5
vt 0.375 0.625
vt 0.375 0.375
vt 0.5 0.5
vt 0.625 0.625
vt 0.375 0.625
vt 0.375 0.375
vt 0.375 0.625
vt 0.25 0.5
vt 0.625 0.375
vt 0.5 0.5
vt 0.375 0.375
vt 0.625 0.625
vt 0.375 0.625
vt 0.5 0.5
vt 0.5 0.5
vt 0.375 0.625
vt 0.375 0.375
vt 0.375 0.625
vt 0.25 0.5
vt 0.375 0.375
vn 0.3574031209169473 0.35740581663070126 -0.8628580945887729
vn 0.35740831064862183 0.8628549118818277 -0.35740831064862183
vn 0.5773488176344393 0.5773531722890505 -0.5773488176344393
vn 0.8628580945887729 0.35740581663070126 -0.3574031209169473
vn -0.35740581663070126 -0.8628580945887729 0.3574031209169473
vn -0.35740581663070126 -0.3574031209169473 0.8628580945887729
vn -0.5773531722890505 -0.5773488176344393 0.5773488176344393
vn -0.8628549118818277 -0.35740831064862183 0.35740831064862183
vn -0.35740581663070126 -0.8628580945887729 -0.3574031209169473
vn -0.35740581663070126 -0.3574031209169473 -0.8628580945887729
vn -0.5773531722890505 -0.5773488176344393 -0.5773488176344393
vn -0.8628549118818277 -0.35740831064862183 -0.35740831064862183
vn 0.35740346526110667 -0.8628589259193568 -0.35740346526110667
vn 0.35740346526110667 -0.35740346526110667 -0.8628589259193568
vn 0.5773502691896257 -0.5773502691896257 -0.5773502691896257
vn 0.8628589259193568 -0.35740346526110667 -0.35740346526110667
vn 0.35740346526110667 -0.8628589259193568 0.35740346526110667
vn 0.8628589259193568 -0.35740346526110667 0.35740346526110667
vn 0.5773502691896257 -0.5773502691896257 0.5773502691896257
vn 0.35740346526110667 -0.35740346526110667 0.8628589259193568
vn 0.3574031209169473 0.35740581663070126 0.8628580945887729
vn 0.35740831064862183 0.8628549118818277 0.35740831064862183
vn 0.8628580945887729 0.35740581663070126 0.3574031209169473
vn 0.5773488176344393 0.5773531722890505 0.5773488176344393
vn -0.8628540805325702 0.3574106620407575 0.3574079662904573
vn -0.577351720733864 0.577351720733864 0.5773473660902011
vn -0.35740547228494 0.35740547228494 0.8628572632605919
vn -0.3574106620407575 0.8628540805325702 0.3574079662904573
vn -0.35740547228494 0.35740547228494 -0.8628572632605919
vn -0.8628540805325702 0.3574106620407575 -0.3574079662904573
vn -0.577351720733864 0.577351720733864 -0.5773473660902011
vn -0.3574106620407575 0.8628540805325702 -0.3574079662904573
usemtl m_20a1f6b9-4019-f3af-6360-1b19b6648eb0
f 1/1/1 2/2/1 3/3/1
f 4/4/2 5/5/2 3/6/2
f 3/7/3 5/8/3 1/9/3
f 5/10/4 6/11/4 1/12/4
f 7/13/5 8/14/5 9/15/5
f 10/16/6 8/17/6 11/18/6
f 8/19/7 10/20/7 9/21/7
f 9/22/8 10/23/8 12/24/8
f 13/25/9 14/26/9 15/27/9
f 16/28/10 15/29/10 17/30/10
f 15/31/11 14/32/11 17/33/11
f 14/34/12 18/35/12 17/36/12
f 19/37/13 20/38/13 21/39/13
f 22/40/14 21/41/14 23/42/14
f 21/43/15 22/44/15 19/45/15
f 24/46/16 19/47/16 22/48/16
f 25/49/17 26/50/17 27/51/17
f 28/52/18 29/53/18 25/54/18
f 26/55/19 25/56/19 29/57/19
f 29/58/20 30/59/20 26/60/20
f 31/61/21 32/62/21 33/63/21
f 34/64/22 33/65/22 35/66/22
f 35/67/23 32/68/23 36/69/23
f 32/70/24 35/71/24 33/72/24
f 37/73/25 38/74/25 39/75/25
f 38/76/26 40/77/26 39/78/26
f 38/79/27 41/80/27 40/81/27
f 39/82/28 40/83/28 42/84/28
f 43/85/29 44/86/29 45/87/29
f 46/88/30 47/89/30 44/90/30
f 44/91/31 47/92/31 45/93/31
f 47/94/32 48/95/32 45/96/32
o nY
v -0.007583000000000006 0 0.257582
v -0.0625 0 0.125
v 0.3125 0 0.125
v 0.3125 0.5 0.125
v 0.257583 0 0.257582
v 0.125 0.5 0.3125
v 0.125 0 0.3125
v -0.0625 0.5 0.125
v -0.007583000000000006 0 -0.007581999999999978
v 0.257583 0.5 -0.007581999999999978
v 0.257583 0 -0.007581999999999978
v 0.257583 0.5 0.257582
v -0.007583000000000006 0.5 0.257582
v -0.007583000000000006 0.5 -0.007581999999999978
v 0.125 0 -0.0625
v 0.125 0.5 -0.0625
vt 0.305394 0.05539399999999994
vt 0.4375 0.0006739999999999524
vt 0.4375 0.37432599999999994
vt 0.125 0.5
vt 0 0
vt 0.125 0
vt 0.125 0.5
vt 0 0
vt 0.125 0
vt 0.125 0.5
vt 0 0
vt 0.125 0
vt 0.25 0.5
vt 0.125 0
vt 0.25 0
vt 0.25 0.5
vt 0.125 0
vt 0.25 0
vt 0.25 0.5
vt 0.125 0
vt 0.25 0
vt 0.25 0.5
vt 0.125 0
vt 0.25 0
vt 0.125 0.5
vt 0 0
vt 0.125 0
vt 0.4375 0.0006739999999999524
vt 0.569606 0.05539399999999994
vt 0.4375 0.37432599999999994
vt 0.569606 0.05539399999999994
vt 0.624326 0.1875
vt 0.4375 0.37432599999999994
vt 0.624326 0.1875
vt 0.569606 0.31960600000000006
vt 0.4375 0.37432599999999994
vt 0.4375 0.37432599999999994
vt 0.305394 0.31960600000000006
vt 0.250674 0.1875
vt 0.250674 0.1875
vt 0.305394 0.05539399999999994
vt 0.4375 0.37432599999999994
vt 0.125 0.5
vt 0 0.5
vt 0 0
vt 0.125 0.5
vt 0 0.5
vt 0 0
vt 0.125 0.5
vt 0 0.5
vt 0 0
vt 0.25 0.5
vt 0.125 0.5
vt 0.125 0
vt 0.25 0.5
vt 0.125 0.5
vt 0.125 0
vt 0.25 0.5
vt 0.125 0.5
vt 0.125 0
vt 0.25 0.5
vt 0.125 0.5
vt 0.125 0
vt 0.125 0.5
vt 0 0.5
vt 0 0
vn 0 -1 0
vn 0.9238801792940465 0 0.38268187088964684
vn -0.38268535505590906 0 0.9238787361043295
vn -0.9238801792940465 0 -0.38268187088964684
vn 0.9238801792940465 0 -0.38268187088964684
vn 0.38268535505590906 0 0.9238787361043295
vn -0.9238801792940465 0 0.38268187088964684
vn -0.38268535505590906 0 -0.9238787361043295
vn 0.38268535505590906 0 -0.9238787361043295
vn 0 -1 0
vn 0 -1 0
vn 0 -1 0
vn 0 -1 0
vn 0 -1 0
vn 0.9238801792940465 0 0.38268187088964684
vn -0.38268535505590906 0 0.9238787361043295
vn -0.9238801792940465 0 -0.38268187088964684
vn 0.9238801792940465 0 -0.38268187088964684
vn 0.38268535505590906 0 0.9238787361043295
vn -0.9238801792940465 0 0.38268187088964684
vn -0.38268535505590906 0 -0.9238787361043295
vn 0.38268535505590906 0 -0.9238787361043295
usemtl m_20a1f6b9-4019-f3af-6360-1b19b6648eb0
f 49/97/33 50/98/33 51/99/33
f 52/100/34 53/101/34 51/102/34
f 54/103/35 49/104/35 55/105/35
f 56/106/36 57/107/36 50/108/36
f 58/109/37 51/110/37 59/111/37
f 60/112/38 55/113/38 53/114/38
f 61/115/39 50/116/39 49/117/39
f 62/118/40 63/119/40 57/120/40
f 64/121/41 59/122/41 63/123/41
f 50/124/42 57/125/42 51/126/42
f 57/127/43 63/128/43 51/129/43
f 63/130/44 59/131/44 51/132/44
f 51/133/45 53/134/45 55/135/45
f 55/136/46 49/137/46 51/138/46
f 52/139/47 60/140/47 53/141/47
f 54/142/48 61/143/48 49/144/48
f 56/145/49 62/146/49 57/147/49
f 58/148/50 52/149/50 51/150/50
f 60/151/51 54/152/51 55/153/51
f 61/154/52 56/155/52 50/156/52
f 62/157/53 64/158/53 63/159/53
f 64/160/54 58/161/54 59/162/54
o pY
v 0.3125 1 0.125
v 0.257583 0.5 0.257582
v 0.3125 0.5 0.125
v 0.125 1 0.3125
v -0.007583000000000006 0.5 0.257582
v 0.125 0.5 0.3125
v -0.0625 1 0.125
v -0.007583000000000006 0.5 -0.007581999999999978
v -0.0625 0.5 0.125
v 0.257583 1 -0.007581999999999978
v 0.257583 0.5 -0.007581999999999978
v 0.257583 1 0.257582
v -0.007583000000000006 1 0.257582
v -0.007583000000000006 1 -0.007581999999999978
v 0.125 0.5 -0.0625
v 0.125 1 -0.0625
vt 0.125 1
vt 0 0.5
vt 0.125 0.5
vt 0.125 1
vt 0 0.5
vt 0.125 0.5
vt 0.125 1
vt 0 0.5
vt 0.125 0.5
vt 0.25 1
vt 0.125 0.5
vt 0.25 0.5
vt 0.25 1
vt 0.125 0.5
vt 0.25 0.5
vt 0.25 1
vt 0.125 0.5
vt 0.25 0.5
vt 0.25 1
vt 0.125 0.5
vt 0.25 0.5
vt 0.125 1
vt 0 0.5
vt 0.125 0.5
vt 0.624326 0.1875
vt 0.4375 0.37432599999999994
vt 0.250674 0.1875
vt 0.125 1
vt 0 1
vt 0 0.5
vt 0.125 1
vt 0 1
vt 0 0.5
vt 0.125 1
vt 0 1
vt 0 0.5
vt 0.25 1
vt 0.125 1
vt 0.125 0.5
vt 0.25 1
vt 0.125 1
vt 0.125 0.5
vt 0.25 1
vt 0.125 1
vt 0.125 0.5
vt 0.25 1
vt 0.125 1
vt 0.125 0.5
vt 0.125 1
vt 0 1
vt 0 0.5
vt 0.250674 0.1875
vt 0.305394 0.05539399999999994
vt 0.624326 0.1875
vt 0.305394 0.05539399999999994
vt 0.4375 0.0006739999999999524
vt 0.624326 0.1875
vt 0.4375 0.0006739999999999524
vt 0.569606 0.05539399999999994
vt 0.624326 0.1875
vt 0.624326 0.1875
vt 0.569606 0.31960600000000006
vt 0.4375 0.37432599999999994
vt 0.4375 0.37432599999999994
vt 0.305394 0.31960600000000006
vt 0.250674 0.1875
vn 0.9238801792940465 0 0.38268187088964684
vn -0.38268535505590906 0 0.9238787361043295
vn -0.9238801792940465 0 -0.38268187088964684
vn 0.9238801792940465 0 -0.38268187088964684
vn 0.38268535505590906 0 0.9238787361043295
vn -0.9238801792940465 0 0.38268187088964684
vn -0.38268535505590906 0 -0.9238787361043295
vn 0.38268535505590906 0 -0.9238787361043295
vn 0 1 0
vn 0.9238801792940465 0 0.38268187088964684
vn -0.38268535505590906 0 0.9238787361043295
vn -0.9238801792940465 0 -0.38268187088964684
vn 0.9238801792940465 0 -0.38268187088964684
vn 0.38268535505590906 0 0.9238787361043295
vn -0.9238801792940465 0 0.38268187088964684
vn -0.38268535505590906 0 -0.9238787361043295
vn 0.38268535505590906 0 -0.9238787361043295
vn 0 1 0
vn 0 1 0
vn 0 1 0
vn 0 1 0
vn 0 1 0
usemtl m_20a1f6b9-4019-f3af-6360-1b19b6648eb0
f 65/163/55 66/164/55 67/165/55
f 68/166/56 69/167/56 70/168/56
f 71/169/57 72/170/57 73/171/57
f 74/172/58 67/173/58 75/174/58
f 76/175/59 70/176/59 66/177/59
f 77/178/60 73/179/60 69/180/60
f 78/181/61 79/182/61 72/183/61
f 80/184/62 75/185/62 79/186/62
f 68/187/63 65/188/63 80/189/63
f 65/190/64 76/191/64 66/192/64
f 68/193/65 77/194/65 69/195/65
f 71/196/66 78/197/66 72/198/66
f 74/199/67 65/200/67 67/201/67
f 76/202/68 68/203/68 70/204/68
f 77/205/69 71/206/69 73/207/69
f 78/208/70 80/209/70 79/210/70
f 80/211/71 74/212/71 75/213/71
f 80/214/72 78/215/72 68/216/72
f 78/217/73 71/218/73 68/219/73
f 71/220/74 77/221/74 68/222/74
f 68/223/75 76/224/75 65/225/75
f 65/226/76 74/227/76 80/228/76
o nX
v -0.375 0.3125 0.125
v -0.375 0.5 0.3125
v -0.375 0.6875 0.125
v 0.12500000000000003 0.632583 -0.007581999999999978
v -0.375 0.632582 -0.007581999999999978
v 0.12500000000000003 0.5 -0.0625
v -0.375 0.367417 -0.007581999999999978
v -0.375 0.5 -0.0625
v 0.12500000000000003 0.3125 0.125
v -0.375 0.367417 0.257583
v 0.12500000000000003 0.632583 0.257582
v -0.375 0.632582 0.257583
v 0.12500000000000003 0.367417 -0.007581999999999978
v 0.12500000000000003 0.367417 0.257582
v 0.12500000000000003 0.5 0.3125
v 0.12500000000000003 0.6875 0.125
vt 0.4375 0.0006739999999999524
vt 0.624326 0.1875
vt 0.4375 0.37432599999999994
vt 0.125 0
vt 0 0.5
vt 0 0
vt 0.125 0.5
vt 0 0
vt 0.125 0
vt 0.125 0.5
vt 0 0
vt 0.125 0
vt 0.25 0.5
vt 0.125 0
vt 0.25 0
vt 0.25 0.5
vt 0.125 0
vt 0.25 0
vt 0.25 0.5
vt 0.125 0
vt 0.25 0
vt 0.25 0.5
vt 0.125 0
vt 0.25 0
vt 0.125 0.5
vt 0 0
vt 0.125 0
vt 0.4375 0.0006739999999999524
vt 0.569606 0.05539399999999994
vt 0.624326 0.1875
vt 0.624326 0.1875
vt 0.569606 0.31960600000000006
vt 0.4375 0.37432599999999994
vt 0.4375 0.37432599999999994
vt 0.305394 0.31960600000000006
vt 0.250674 0.1875
vt 0.250674 0.1875
vt 0.305394 0.05539399999999994
vt 0.4375 0.37432599999999994
vt 0.305394 0.05539399999999994
vt 0.4375 0.0006739999999999524
vt 0.4375 0.37432599999999994
vt 0.125 0
vt 0.125 0.5
vt 0 0.5
vt 0.125 0.5
vt 0 0.5
vt 0 0
vt 0.125 0.5
vt 0 0.5
vt 0 0
vt 0.25 0.5
vt 0.125 0.5
vt 0.125 0
vt 0.25 0.5
vt 0.125 0.5
vt 0.125 0
vt 0.25 0.5
vt 0.125 0.5
vt 0.125 0
vt 0.25 0.5
vt 0.125 0.5
vt 0.125 0
vt 0.125 0.5
vt 0 0.5
vt 0 0
vn -1 0 0
vn -0.0000018477554312470582 0.9238777155980531 -0.3826878187477479
vn 0 -0.38268535505590906 -0.9238787361043295
vn 0 -0.9238811997697454 0.3826794072223068
vn -0.0000010823867621273313 0.9238787361037882 0.38268535505568485
vn -7.653756375185871e-7 0.3826878187482891 -0.9238777155993596
vn 0 -0.9238801792940465 -0.38268187088964684
vn 0.0000018477623995894697 -0.38267940722165344 0.9238811997681681
vn 0 0.38268187088964684 0.9238801792940465
vn -1 0 0
vn -1 0 0
vn -1 0 0
vn -1 0 0
vn -1 0 0
vn 0 0.9238801792940465 -0.38268187088964684
vn 0 -0.38268535505590906 -0.9238787361043295
vn 7.653637417972719e-7 -0.923880179293776 0.38268187088953476
vn 0 0.9238801792940465 0.38268187088964684
vn 0 0.38268535505590906 -0.9238787361043295
vn 0 -0.9238801792940465 -0.38268187088964684
vn 0 -0.38268535505590906 0.9238787361043295
vn 0.0000010823867621289564 0.38268535505568485 0.9238787361037882
usemtl m_20a1f6b9-4019-f3af-6360-1b19b6648eb0
f 81/229/77 82/230/77 83/231/77
f 83/232/78 84/233/78 85/234/78
f 86/235/79 87/236/79 88/237/79
f 89/238/80 90/239/80 81/240/80
f 91/241/81 83/242/81 92/243/81
f 84/244/82 88/245/82 85/246/82
f 93/247/83 81/248/83 87/249/83
f 94/250/84 82/251/84 90/252/84
f 95/253/85 92/254/85 82/255/85
f 81/256/86 90/257/86 82/258/86
f 82/259/87 92/260/87 83/261/87
f 83/262/88 85/263/88 88/264/88
f 88/265/89 87/266/89 83/267/89
f 87/268/90 81/269/90 83/270/90
f 83/271/91 96/272/91 84/273/91
f 86/274/92 93/275/92 87/276/92
f 89/277/93 94/278/93 90/279/93
f 91/280/94 96/281/94 83/282/94
f 84/283/95 86/284/95 88/285/95
f 93/286/96 89/287/96 81/288/96
f 94/289/97 95/290/97 82/291/97
f 95/292/98 91/293/98 92/294/98
o nZ
v 0.3125 0.5 0.625
v 0.125 0.6875 0.625
v -0.0625 0.5 0.625
v 0.3125 0.5 0.125
v 0.257583 0.632582 0.625
v 0.257582 0.367417 0.125
v 0.257583 0.367417 0.625
v -0.007581999999999978 0.367417 0.625
v 0.125 0.3125 0.125
v 0.125 0.3125 0.625
v -0.007581999999999978 0.632583 0.125
v -0.007581999999999978 0.632582 0.625
v 0.257582 0.632583 0.125
v -0.0625 0.5 0.125
v 0.125 0.6875 0.125
v -0.007581999999999978 0.367417 0.125
vt 0.624326 0.1875
vt 0.4375 0.37432599999999994
vt 0.250674 0.1875
vt 0.125 0.5
vt 0 0
vt 0.125 0
vt 0.25 0.5
vt 0.125 0
vt 0.25 0
vt 0.25 0
vt 0.125 0.5
vt 0.125 0
vt 0.25 0.5
vt 0.125 0
vt 0.25 0
vt 0.25 0.5
vt 0.125 0
vt 0.25 0
vt 0.125 0.5
vt 0 0
vt 0.125 0
vt 0.125 0.5
vt 0 0
vt 0.125 0
vt 0.125 0.5
vt 0 0
vt 0.125 0
vt 0.4375 0.0006739999999999524
vt 0.569606 0.05539399999999994
vt 0.624326 0.1875
vt 0.624326 0.1875
vt 0.569606 0.31960600000000006
vt 0.4375 0.37432599999999994
vt 0.4375 0.37432599999999994
vt 0.305394 0.31960600000000006
vt 0.250674 0.1875
vt 0.250674 0.1875
vt 0.305394 0.05539399999999994
vt 0.4375 0.0006739999999999524
vt 0.4375 0.0006739999999999524
vt 0.624326 0.1875
vt 0.250674 0.1875
vt 0.125 0.5
vt 0 0.5
vt 0 0
vt 0.25 0.5
vt 0.125 0.5
vt 0.125 0
vt 0.25 0
vt 0.25 0.5
vt 0.125 0.5
vt 0.25 0.5
vt 0.125 0.5
vt 0.125 0
vt 0.25 0.5
vt 0.125 0.5
vt 0.125 0
vt 0.125 0.5
vt 0 0.5
vt 0 0
vt 0.125 0.5
vt 0 0.5
vt 0 0
vt 0.125 0.5
vt 0 0.5
vt 0 0
vn 0 0 1
vn 0.9238801792940465 0.38268187088964684 0
vn 0.9238811997681681 -0.38267940722165344 -0.0000018477623995894697
vn -0.38268187088964684 -0.9238801792940465 0
vn -0.9238777155993596 0.3826878187482891 7.653756375185871e-7
vn 0.38268535505568485 0.9238787361037882 0.0000010823867621273313
vn 0.3826794072223068 -0.9238811997697454 0
vn -0.9238787361043295 -0.38268535505590906 0
vn -0.38268781874840113 0.9238777155996302 0
vn 0 0 1
vn 0 0 1
vn 0 0 1
vn 0 0 1
vn 0 0 1
vn 0.9238787361037882 0.38268535505568485 -0.0000010823867621289564
vn 0.9238787361043295 -0.38268535505590906 0
vn -0.38268187088964684 -0.9238801792940465 0
vn -0.9238787361043295 0.38268535505590906 0
vn 0.38268187088964684 0.9238801792940465 0
vn 0.38268187088953476 -0.923880179293776 -7.653637417972719e-7
vn -0.9238787361043295 -0.38268535505590906 0
vn -0.3826818708889936 0.9238801792924695 0.000001847760358635891
usemtl m_20a1f6b9-4019-f3af-6360-1b19b6648eb0
f 97/295/99 98/296/99 99/297/99
f 100/298/100 101/299/100 97/300/100
f 102/301/101 97/302/101 103/303/101
f 104/304/102 105/305/102 106/306/102
f 107/307/103 99/308/103 108/309/103
f 109/310/104 98/311/104 101/312/104
f 105/313/105 103/314/105 106/315/105
f 110/316/106 104/317/106 99/318/106
f 111/319/107 108/320/107 98/321/107
f 106/322/108 103/323/108 97/324/108
f 97/325/109 101/326/109 98/327/109
f 98/328/110 108/329/110 99/330/110
f 99/331/111 104/332/111 106/333/111
f 106/334/112 97/335/112 99/336/112
f 100/337/113 109/338/113 101/339/113
f 102/340/114 100/341/114 97/342/114
f 104/343/115 112/344/115 105/345/115
f 107/346/116 110/347/116 99/348/116
f 109/349/117 111/350/117 98/351/117
f 105/352/118 102/353/118 103/354/118
f 110/355/119 112/356/119 104/357/119
f 111/358/120 107/359/120 108/360/120
o pZ
v 0.125 0.6875 -0.375
v -0.007581999999999978 0.632583 0.12499999999999997
v 0.125 0.6875 0.12499999999999997
v -0.0625 0.5 -0.375
v -0.007581999999999978 0.367417 0.12499999999999997
v -0.0625 0.5 0.12499999999999997
v 0.125 0.3125 -0.375
v 0.257582 0.367417 0.12499999999999997
v 0.125 0.3125 0.12499999999999997
v 0.257582 0.632583 -0.375
v 0.257582 0.632583 0.12499999999999997
v 0.257582 0.367418 -0.375
v 0.3125 0.5 0.12499999999999997
v 0.3125 0.5 -0.375
v -0.007583000000000006 0.632583 -0.375
v -0.007583000000000006 0.367418 -0.375
vt 0.125 1
vt 0 0.5
vt 0.125 0.5
vt 0.125 1
vt 0 0.5
vt 0.125 0.5
vt 0.125 1
vt 0 0.5
vt 0.125 0.5
vt 0.25 1
vt 0.125 0.5
vt 0.25 0.5
vt 0.25 0.5
vt 0.125 1
vt 0.125 0.5
vt 0.25 0.5
vt 0.125 1
vt 0.125 0.5
vt 0.25 1
vt 0.125 0.5
vt 0.25 0.5
vt 0.125 1
vt 0 0.5
vt 0.125 0.5
vt 0.305394 0.31960600000000006
vt 0.250674 0.1875
vt 0.624326 0.1875
vt 0.125 1
vt 0 1
vt 0 0.5
vt 0.125 1
vt 0 1
vt 0 0.5
vt 0.125 1
vt 0 1
vt 0 0.5
vt 0.25 1
vt 0.125 1
vt 0.125 0.5
vt 0.25 0.5
vt 0.25 1
vt 0.125 1
vt 0.25 0.5
vt 0.25 1
vt 0.125 1
vt 0.25 1
vt 0.125 1
vt 0.125 0.5
vt 0.125 1
vt 0 1
vt 0 0.5
vt 0.250674 0.1875
vt 0.305394 0.05539399999999994
vt 0.4375 0.0006739999999999524
vt 0.4375 0.0006739999999999524
vt 0.569606 0.05539399999999994
vt 0.250674 0.1875
vt 0.569606 0.05539399999999994
vt 0.624326 0.1875
vt 0.250674 0.1875
vt 0.624326 0.1875
vt 0.569606 0.31960600000000006
vt 0.4375 0.37432599999999994
vt 0.4375 0.37432599999999994
vt 0.305394 0.31960600000000006
vt 0.624326 0.1875
vn -0.38268187088964684 0.9238801792940465 0
vn -0.9238787361043295 -0.38268535505590906 0
vn 0.38268187088964684 -0.9238801792940465 0
vn 0.38268187088964684 0.9238801792940465 0
vn -0.9238787361043295 0.38268535505590906 0
vn -0.38268187088964684 -0.9238801792940465 0
vn 0.9238787361040588 -0.38268535505579687 -7.653707101336026e-7
vn 0.9238787361043295 0.38268535505590906 0
vn 0 0 -1
vn -0.3826794072221946 0.9238811997694747 7.653588144625915e-7
vn -0.9238801792935055 -0.38268187088942274 0.0000010823966168409155
vn 0.3826878187477479 -0.9238777155980531 -0.0000018477554312470582
vn 0.38268187088964684 0.9238801792940465 0
vn -0.9238811997681681 0.38267940722165344 0.0000018477623995894697
vn -0.38268535505568485 -0.9238787361037882 -0.0000010823867621273313
vn 0.9238777155996302 -0.38268781874840113 0
vn 0.9238787361043295 0.38268535505590906 0
vn 0 0 -1
vn 0 0 -1
vn 0 0 -1
vn 0 0 -1
vn 0 0 -1
usemtl m_20a1f6b9-4019-f3af-6360-1b19b6648eb0
f 113/361/121 114/362/121 115/363/121
f 116/364/122 117/365/122 118/366/122
f 119/367/123 120/368/123 121/369/123
f 122/370/124 115/371/124 123/372/124
f 114/373/125 116/374/125 118/375/125
f 117/376/126 119/377/126 121/378/126
f 124/379/127 125/380/127 120/381/127
f 126/382/128 123/383/128 125/384/128
f 122/385/129 126/386/129 116/387/129
f 113/388/130 127/389/130 114/390/130
f 116/391/131 128/392/131 117/393/131
f 119/394/132 124/395/132 120/396/132
f 122/397/133 113/398/133 115/399/133
f 114/400/134 127/401/134 116/402/134
f 117/403/135 128/404/135 119/405/135
f 124/406/136 126/407/136 125/408/136
f 126/409/137 122/410/137 123/411/137
f 126/412/138 124/413/138 119/414/138
f 119/415/139 128/416/139 126/417/139
f 128/418/140 116/419/140 126/420/140
f 116/421/141 127/422/141 113/423/141
f 113/424/142 122/425/142 116/426/142
o pX
v 0.625 0.6875 0.125
v 0.125 0.632583 -0.007581999999999978
v 0.125 0.6875 0.125
v 0.125 0.5 -0.0625
v 0.625 0.367418 -0.007581999999999978
v 0.125 0.367417 -0.007581999999999978
v 0.625 0.3125 0.125
v 0.125 0.367417 0.257582
v 0.125 0.3125 0.125
v 0.625 0.632583 0.257582
v 0.125 0.632583 0.257582
v 0.625 0.632583 -0.007581999999999978
v 0.625 0.367418 0.257582
v 0.125 0.5 0.3125
v 0.625 0.5 0.3125
v 0.625 0.5 -0.0625
vt 0.125 1
vt 0 0.5
vt 0.125 0.5
vt 0.125 0.5
vt 0 1
vt 0 0.5
vt 0.125 1
vt 0 0.5
vt 0.125 0.5
vt 0.25 1
vt 0.125 0.5
vt 0.25 0.5
vt 0.25 1
vt 0.125 0.5
vt 0.25 0.5
vt 0.25 1
vt 0.125 0.5
vt 0.25 0.5
vt 0.25 1
vt 0.125 0.5
vt 0.25 0.5
vt 0.125 1
vt 0 0.5
vt 0.125 0.5
vt 0.305394 0.31960600000000006
vt 0.250674 0.1875
vt 0.624326 0.1875
vt 0.125 1
vt 0 1
vt 0 0.5
vt 0.125 0.5
vt 0.125 1
vt 0 1
vt 0.125 1
vt 0 1
vt 0 0.5
vt 0.25 1
vt 0.125 1
vt 0.125 0.5
vt 0.25 1
vt 0.125 1
vt 0.125 0.5
vt 0.25 1
vt 0.125 1
vt 0.125 0.5
vt 0.25 1
vt 0.125 1
vt 0.125 0.5
vt 0.125 1
vt 0 1
vt 0 0.5
vt 0.250674 0.1875
vt 0.305394 0.05539399999999994
vt 0.4375 0.0006739999999999524
vt 0.4375 0.0006739999999999524
vt 0.569606 0.05539399999999994
vt 0.250674 0.1875
vt 0.569606 0.05539399999999994
vt 0.624326 0.1875
vt 0.250674 0.1875
vt 0.624326 0.1875
vt 0.569606 0.31960600000000006
vt 0.4375 0.37432599999999994
vt 0.4375 0.37432599999999994
vt 0.305394 0.31960600000000006
vt 0.624326 0.1875
vn 0 0.9238801792940465 -0.38268187088964684
vn 7.653707101357838e-7 -0.38268535505579687 -0.9238787361040588
vn 0 -0.9238801792940465 0.38268187088964684
vn 0 0.9238801792940465 0.38268187088964684
vn 0 0.38268535505590906 -0.9238787361043295
vn 0.0000018477603586380724 -0.9238801792924695 -0.3826818708889936
vn 7.653707101336026e-7 -0.38268535505579687 0.9238787361040588
vn 0 0.38268535505590906 0.9238787361043295
vn 1 0 0
vn 0 0.9238801792940465 -0.38268187088964684
vn 0 -0.38268781874840113 -0.9238777155996302
vn 0.0000018477554312470582 -0.9238777155980531 0.3826878187477479
vn 0 0.9238801792940465 0.38268187088964684
vn 0 0.38268535505590906 -0.9238787361043295
vn 0 -0.9238777155996302 -0.38268781874840113
vn 0 -0.38268781874840113 0.9238777155996302
vn 0 0.38268535505590906 0.9238787361043295
vn 1 0 0
vn 1 0 0
vn 1 0 0
vn 1 0 0
vn 1 0 0
usemtl m_20a1f6b9-4019-f3af-6360-1b19b6648eb0
f 129/427/143 130/428/143 131/429/143
f 132/430/144 133/431/144 134/432/144
f 135/433/145 136/434/145 137/435/145
f 138/436/146 131/437/146 139/438/146
f 140/439/147 132/440/147 130/441/147
f 133/442/148 137/443/148 134/444/148
f 141/445/149 142/446/149 136/447/149
f 143/448/150 139/449/150 142/450/150
f 138/451/151 143/452/151 144/453/151
f 129/454/152 140/455/152 130/456/152
f 132/457/153 144/458/153 133/459/153
f 135/460/154 141/461/154 136/462/154
f 138/463/155 129/464/155 131/465/155
f 140/466/156 144/467/156 132/468/156
f 133/469/157 135/470/157 137/471/157
f 141/472/158 143/473/158 142/474/158
f 143/475/159 138/476/159 139/477/159
f 143/478/160 141/479/160 135/480/160
f 135/481/161 133/482/161 143/483/161
f 133/484/162 144/485/162 143/486/162
f 144/487/163 140/488/163 129/489/163
f 129/490/164 138/491/164 144/492/164