# Made in Blockbench 5.1.2
mtllib shaft.mtl

o cylinder
v 0.5 0.4999999999999999 1
v 0.5 0.5000000000000001 0
v 0.707106875 0.9999999999999999 1
v 0.707106875 1 1.1102230246251565e-16
v 1 0.7071068749999999 1
v 1 0.7071068750000001 5.551115123125783e-17
v 1 0.29289312499999987 1
v 1 0.2928931250000001 0
v 0.707106875 -1.1102230246251565e-16 0.9999999999999999
v 0.707106875 1.1102230246251565e-16 -1.1102230246251565e-16
v 0.292893125 -1.1102230246251565e-16 0.9999999999999999
v 0.292893125 1.1102230246251565e-16 -1.1102230246251565e-16
v 0 0.29289312499999987 1
v 0 0.2928931250000001 0
v 0 0.7071068749999999 1
v 0 0.7071068750000001 5.551115123125783e-17
v 0.292893125 0.9999999999999999 1
v 0.292893125 1 1.1102230246251565e-16
vt 0.25 0.9267765625
vt 0.1767765625 1
vt 0.125 0.875
vt 0.25 0.265625
vt 0.359375 0.265625
vt 0.359375 0.515625
vt 0.25 0.515625
vt 0.3799015625 0.53125
vt 0.453125 0.6044734375
vt 0.328125 0.65625
vt 0.25 0.8232234375
vt 0.25 0.9267765625
vt 0.125 0.875
vt 0 0.484375
vt 0.109375 0.484375
vt 0.109375 0.734375
vt 0 0.734375
vt 0.453125 0.6044734375
vt 0.453125 0.7080265625
vt 0.328125 0.65625
vt 0.1767765625 0.75
vt 0.25 0.8232234375
vt 0.125 0.875
vt 0 0.21875
vt 0.109375 0.21875
vt 0.109375 0.46875
vt 0 0.46875
vt 0.453125 0.7080265625
vt 0.3799015625 0.78125
vt 0.328125 0.65625
vt 0.0732234375 0.75
vt 0.1767765625 0.75
vt 0.125 0.875
vt 0.453125 0.75
vt 0.5625 0.75
vt 0.5625 1
vt 0.453125 1
vt 0.3799015625 0.78125
vt 0.2763484375 0.78125
vt 0.328125 0.65625
vt 0 0.8232234375
vt 0.0732234375 0.75
vt 0.125 0.875
vt 0.5625 0.484375
vt 0.671875 0.484375
vt 0.671875 0.734375
vt 0.5625 0.734375
vt 0.2763484375 0.78125
vt 0.203125 0.7080265625
vt 0.328125 0.65625
vt 0 0.9267765625
vt 0 0.8232234375
vt 0.125 0.875
vt 0.125 0.28125
vt 0.234375 0.28125
vt 0.234375 0.53125
vt 0.125 0.53125
vt 0.203125 0.7080265625
vt 0.203125 0.6044734375
vt 0.328125 0.65625
vt 0.0732234375 1
vt 0 0.9267765625
vt 0.125 0.875
vt 0.5625 0.21875
vt 0.671875 0.21875
vt 0.671875 0.46875
vt 0.5625 0.46875
vt 0.203125 0.6044734375
vt 0.2763484375 0.53125
vt 0.328125 0.65625
vt 0.1767765625 1
vt 0.0732234375 1
vt 0.125 0.875
vt 0.4375 0.296875
vt 0.546875 0.296875
vt 0.546875 0.546875
vt 0.4375 0.546875
vt 0.2763484375 0.53125
vt 0.3799015625 0.53125
vt 0.328125 0.65625
vn 0 -2.220446049250313e-16 1
vn 0.7071067811865476 0.7071067811865476 1.5700924586837752e-16
vn 0 2.220446049250313e-16 -1
vn 0 -2.220446049250313e-16 1
vn 1 0 0
vn 0 2.220446049250313e-16 -1
vn 0 -2.220446049250313e-16 1
vn 0.7071067811865476 -0.7071067811865476 -1.5700924586837752e-16
vn 0 2.220446049250313e-16 -1
vn 0 -2.220446049250313e-16 1
vn 0 -1 -2.220446049250313e-16
vn 0 2.220446049250313e-16 -1
vn 0 -2.220446049250313e-16 1
vn -0.7071067811865476 -0.7071067811865476 -1.5700924586837752e-16
vn 0 2.220446049250313e-16 -1
vn 0 -2.220446049250313e-16 1
vn -1 0 0
vn 0 2.220446049250313e-16 -1
vn 0 -2.220446049250313e-16 1
vn -0.7071067811865476 0.7071067811865476 1.5700924586837752e-16
vn 0 2.220446049250313e-16 -1
vn 0 -2.220446049250313e-16 1
vn 0 1 2.220446049250313e-16
vn 0 2.220446049250313e-16 -1
usemtl shaft_material
f 5/1/1 3/2/1 1/3/1
f 3/4/2 5/5/2 6/6/2 4/7/2
f 4/8/3 6/9/3 2/10/3
f 7/11/4 5/12/4 1/13/4
f 5/14/5 7/15/5 8/16/5 6/17/5
f 6/18/6 8/19/6 2/20/6
f 9/21/7 7/22/7 1/23/7
f 7/24/8 9/25/8 10/26/8 8/27/8
f 8/28/9 10/29/9 2/30/9
f 11/31/10 9/32/10 1/33/10
f 9/34/11 11/35/11 12/36/11 10/37/11
f 10/38/12 12/39/12 2/40/12
f 13/41/13 11/42/13 1/43/13
f 11/44/14 13/45/14 14/46/14 12/47/14
f 12/48/15 14/49/15 2/50/15
f 15/51/16 13/52/16 1/53/16
f 13/54/17 15/55/17 16/56/17 14/57/17
f 14/58/18 16/59/18 2/60/18
f 17/61/19 15/62/19 1/63/19
f 15/64/20 17/65/20 18/66/20 16/67/20
f 16/68/21 18/69/21 2/70/21
f 3/71/22 17/72/22 1/73/22
f 17/74/23 3/75/23 4/76/23 18/77/23
f 18/78/24 4/79/24 2/80/24