# Made in Blockbench 5.1.3
mtllib smelter.mtl

o 1
v 0.796875 2 0.796875
v 0.796875 2 -0.796875
v -0.796875 2 0.796875
v -0.796875 2 -0.796875
v -1.0625 1.53125 0.796875
v -1.0625 1.84375 0.796875
v -1.0625 1.53125 -0.796875
v -1.0625 1.84375 -0.796875
v 1.0625 1.53125 0.796875
v 1.0625 1.84375 0.796875
v 1.0625 1.53125 -0.796875
v 1.0625 1.84375 -0.796875
v 0.796875 1.53125 -1.0625
v 0.796875 1.84375 -1.0625
v -0.796875 1.53125 -1.0625
v -0.796875 1.84375 -1.0625
v 0.796875 1.53125 1.0625
v 0.796875 1.84375 1.0625
v -0.796875 1.53125 1.0625
v -0.796875 1.84375 1.0625
v -0.67427875 2 0.67427875
v 0.67427875 2 0.67427875
v 0.67427875 2 -0.67427875
v -0.67427875 2 -0.67427875
v -0.6129806818181819 1.953125 -0.6129806818181819
v -0.6129806818181819 1.953125 0.6129806818181819
v 0.6129806818181819 1.953125 0.6129806818181819
v 0.6129806818181819 1.953125 -0.6129806818181819
vt 0.1015625 0.6875
vt 0 0.6875
vt 0 0.66796875
vt 0.1015625 0.66796875
vt 0.4453125 0.6171875
vt 0.4453125 0.63671875
vt 0.34375 0.63671875
vt 0.34375 0.6171875
vt 0.30078125 0.6015625
vt 0.30078125 0.62109375
vt 0.19921875 0.62109375
vt 0.19921875 0.6015625
vt 0.40625 0.61328125
vt 0.3046875 0.61328125
vt 0.3046875 0.59375
vt 0.40625 0.59375
vt 0.19921875 0.65234375
vt 0.22265625 0.65234375
vt 0.22265625 0.671875
vt 0.19921875 0.671875
vt 0.2265625 0.671875
vt 0.2265625 0.65234375
vt 0.25 0.65234375
vt 0.25 0.671875
vt 0.25390625 0.671875
vt 0.25390625 0.65234375
vt 0.27734375 0.65234375
vt 0.27734375 0.671875
vt 0.41796875 0.79296875
vt 0.44140625 0.79296875
vt 0.44140625 0.8125
vt 0.41796875 0.8125
vt 0.5921875 0.739453125
vt 0.58046875 0.723828125
vt 0.60390625 0.723828125
vt 0.5921875 0.739453125
vt 0.58046875 0.723828125
vt 0.60390625 0.723828125
vt 0.5921875 0.739453125
vt 0.58046875 0.723828125
vt 0.60390625 0.723828125
vt 0.51953125 1
vt 0.41796875 1
vt 0.41796875 0.98046875
vt 0.51953125 0.98046875
vt 0.51953125 0.95703125
vt 0.51953125 0.9765625
vt 0.41796875 0.9765625
vt 0.41796875 0.95703125
vt 0.30078125 0.578125
vt 0.30078125 0.59765625
vt 0.19921875 0.59765625
vt 0.19921875 0.578125
vt 0.40625 0.58984375
vt 0.3046875 0.58984375
vt 0.3046875 0.5703125
vt 0.40625 0.5703125
vt 0.5921875 0.739453125
vt 0.58046875 0.723828125
vt 0.60390625 0.723828125
vt 0.26953125 0.8984375
vt 0.26953125 1
vt 0.26171875 0.9921875
vt 0.26171875 0.90625
vt 0.26953125 1
vt 0.16796875 1
vt 0.17578125 0.9921875
vt 0.26171875 0.9921875
vt 0.16796875 1
vt 0.16796875 0.8984375
vt 0.17578125 0.90625
vt 0.17578125 0.9921875
vt 0.17578125 0.90625
vt 0.16796875 0.8984375
vt 0.26953125 0.8984375
vt 0.26171875 0.90625
vt 0.1796875 0.91015625
vt 0.17578125 0.90625
vt 0.26171875 0.90625
vt 0.2578125 0.91015625
vt 0.2578125 0.91015625
vt 0.26171875 0.90625
vt 0.26171875 0.9921875
vt 0.2578125 0.98828125
vt 0.26171875 0.9921875
vt 0.17578125 0.9921875
vt 0.17968750000000003 0.98828125
vt 0.2578125 0.98828125
vt 0.17968750000000003 0.98828125
vt 0.17578125 0.9921875
vt 0.17578125 0.90625
vt 0.1796875 0.91015625
vt 0.17968750000000003 0.98828125
vt 0.1796875 0.91015625
vt 0.2578125 0.91015625
vt 0.2578125 0.98828125
vn 1 0 0
vn -1 0 0
vn 0 0 1
vn 0 0 -1
vn 0.7071067811865476 0 -0.7071067811865476
vn 0.7071067811865476 0 0.7071067811865476
vn -0.7071067811865476 0 -0.7071067811865476
vn -0.7071067811865476 0 0.7071067811865476
vn 0.4522156316461346 0.7687665737984288 0.4522156316461346
vn -0.4522156316461346 0.7687665737984288 0.4522156316461346
vn -0.4522156316461346 0.7687665737984288 -0.4522156316461346
vn 0.5070201265633939 0.8619342151577697 0
vn -0.5070201265633939 0.8619342151577697 0
vn 0 0.8619342151577697 0.5070201265633939
vn 0 0.8619342151577697 -0.5070201265633939
vn 0.4522156316461346 0.7687665737984288 -0.4522156316461346
vn 0 1 0
vn 0 1 0
vn 0 1 0
vn 0 1 0
vn 0 0.7943577911783211 -0.6074501622308607
vn -0.6074501622308611 0.7943577911783208 0
vn 0 0.7943577911783211 0.6074501622308607
vn 0.6074501622308607 0.7943577911783211 0
vn 4.5279690598571884e-17 1 0
usemtl m_84609a9b-11c1-f89a-ea14-c9fd4b1cd579
f 12/1/1 10/2/1 9/3/1 11/4/1
f 5/5/2 6/6/2 8/7/2 7/8/2
f 17/9/3 18/10/3 20/11/3 19/12/3
f 16/13/4 14/14/4 13/15/4 15/16/4
f 11/17/5 13/18/5 14/19/5 12/20/5
f 18/21/6 17/22/6 9/23/6 10/24/6
f 16/25/7 15/26/7 7/27/7 8/28/7
f 5/29/8 19/30/8 20/31/8 6/32/8
f 1/33/9 18/34/9 10/35/9
f 3/36/10 6/37/10 20/38/10
f 4/39/11 16/40/11 8/41/11
f 2/42/12 1/43/12 10/44/12 12/45/12
f 6/46/13 3/47/13 4/48/13 8/49/13
f 18/50/14 1/51/14 3/52/14 20/53/14
f 4/54/15 2/55/15 14/56/15 16/57/15
f 2/58/16 12/59/16 14/60/16
f 1/61/17 2/62/17 23/63/17 22/64/17
f 2/65/18 4/66/18 24/67/18 23/68/18
f 4/69/19 3/70/19 21/71/19 24/72/19
f 21/73/20 3/74/20 1/75/20 22/76/20
f 26/77/21 21/78/21 22/79/21 27/80/21
f 27/81/22 22/82/22 23/83/22 28/84/22
f 23/85/23 24/86/23 25/87/23 28/88/23
f 25/89/24 24/90/24 21/91/24 26/92/24
f 25/93/25 26/94/25 27/95/25 28/96/25
o 2
v 1.125 1.625 1.125
v 1.125 1.625 -1.125
v -1.125 1.625 1.125
v -1.125 1.625 -1.125
v 1.5 0 1.125
v 1.125 0 -1.5
v -1.5 0 -1.125
v -1.5 0 1.125
v -1.5 1.083333125 1.125
v -1.5 1.083333125 -1.125
v 1.5 1.083333125 1.125
v 1.5 0 -1.125
v 1.5 1.083333125 -1.125
v 1.125 1.083333125 -1.5
v -1.125 0 -1.5
v -1.125 1.083333125 -1.5
v 1.125 1.083333125 1.5
v -1.125 1.083333125 1.5
v 1.125 0 1.5
v -1.125 0 1.5
vt 0.140625 0.69140625
vt 0.140625 0.83203125
vt 0 0.83203125
vt 0 0.69140625
vt 0.4296875 0.7421875
vt 0.2890625 0.7421875
vt 0.2890625 0.69921875
vt 0.4296875 0.69921875
vt 0.4296875 0.7890625
vt 0.2890625 0.7890625
vt 0.2890625 0.74609375
vt 0.4296875 0.74609375
vt 0.568359375 0.953125
vt 0.546875 0.91015625
vt 0.58984375 0.91015625
vt 0.568359375 0.953125
vt 0.546875 0.91015625
vt 0.58984375 0.91015625
vt 0.568359375 0.953125
vt 0.546875 0.91015625
vt 0.58984375 0.91015625
vt 0.568359375 0.953125
vt 0.546875 0.91015625
vt 0.58984375 0.91015625
vt 0.0011203125 0.6484375
vt 0.1668484375 0.6484375
vt 0.140331953125 0.6683248828125
vt 0.193537421875 0.50390625
vt 0.193537421875 0.6696344140625
vt 0.173650078125 0.643117890625
vt 0 1
vt 0 0.8359375
vt 0.1640625 0.8359375
vt 0.1640625 1
vt 0.3660671875 0.6448873828125
vt 0.2003390625 0.6448873828125
vt 0.226855546875 0.625
vt 0.4140625 1
vt 0.2734375 1
vt 0.2734375 0.93359375
vt 0.4140625 0.93359375
vt 0.015625 0.64453125
vt 0.015625 0.578125
vt 0.046875 0.578125
vt 0.046875 0.64453125
vt 0.05078125 0.64453125
vt 0.05078125 0.578125
vt 0.08203125 0.578125
vt 0.08203125 0.64453125
vt 0.0859375 0.578125
vt 0.1171875 0.578125
vt 0.1171875 0.64453125
vt 0.0859375 0.64453125
vt 0.12109375 0.578125
vt 0.15234375 0.578125
vt 0.15234375 0.64453125
vt 0.12109375 0.64453125
vt 0.4140625 0.86328125
vt 0.4140625 0.9296875
vt 0.2734375 0.9296875
vt 0.2734375 0.86328125
vt 0.4140625 0.859375
vt 0.2734375 0.859375
vt 0.2734375 0.79296875
vt 0.4140625 0.79296875
vt 0.001775078125 0.6422906640625
vt 0.001775078125 0.4765625
vt 0.021662421875 0.5030790234375
vt 0.28515625 0.67578125
vt 0.28515625 0.71875
vt 0.14453125 0.71875
vt 0.14453125 0.67578125
vt 0.4296875 0.65234375
vt 0.4296875 0.6953125
vt 0.2890625 0.6953125
vt 0.2890625 0.65234375
vt 0.28515625 0.72265625
vt 0.28515625 0.7890625
vt 0.14453125 0.7890625
vt 0.14453125 0.72265625
vn 0 1 0
vn 0.8221922941015349 0.5692098308357431 0
vn 0 0.5692098308357431 -0.8221922941015349
vn 0.6350916065906895 0.4396786354556176 0.6350916065906895
vn -0.6350916065906895 0.4396786354556176 0.6350916065906895
vn 0.6350916065906895 0.4396786354556176 -0.6350916065906895
vn -0.6350916065906895 0.4396786354556176 -0.6350916065906895
vn 0 -1 0
vn 0 -1 0
vn 0 -1 0
vn 0 -1 0
vn 0 0 -1
vn 0.7071067811865476 0 0.7071067811865476
vn -0.7071067811865476 0 -0.7071067811865476
vn -0.7071067811865476 0 0.7071067811865476
vn 0.7071067811865476 0 -0.7071067811865476
vn 0 0 1
vn 1 0 0
vn 0 -1 0
vn 0 0.5692098308357431 0.8221922941015349
vn -0.8221922941015349 0.5692098308357431 0
vn -1 0 0
usemtl m_84609a9b-11c1-f89a-ea14-c9fd4b1cd579
f 29/97/26 30/98/26 32/99/26 31/100/26
f 30/101/27 29/102/27 39/103/27 41/104/27
f 32/105/28 30/106/28 42/107/28 44/108/28
f 29/109/29 45/110/29 39/111/29
f 31/112/30 37/113/30 46/114/30
f 30/115/31 41/116/31 42/117/31
f 32/118/32 44/119/32 38/120/32
f 35/121/33 48/122/33 36/123/33
f 34/124/34 35/125/34 43/126/34
f 35/127/35 34/128/35 33/129/35 48/130/35
f 33/131/36 34/132/36 40/133/36
f 44/134/37 42/135/37 34/136/37 43/137/37
f 45/138/38 47/139/38 33/140/38 39/141/38
f 44/142/39 43/143/39 35/144/39 38/145/39
f 36/146/40 48/147/40 46/148/40 37/149/40
f 40/150/41 34/151/41 42/152/41 41/153/41
f 47/154/42 45/155/42 46/156/42 48/157/42
f 41/158/43 39/159/43 33/160/43 40/161/43
f 48/162/44 33/163/44 47/164/44
f 45/165/45 29/166/45 31/167/45 46/168/45
f 37/169/46 31/170/46 32/171/46 38/172/46
f 36/173/47 37/174/47 38/175/47 35/176/47