# Made in Blockbench 5.1.3
mtllib smelter.mtl

o 2
v 1.125 1.625 1.125
v 1.125 1.625 -1.125
v -1.125 1.625 1.125
v -1.125 1.625 -1.125
v 1.5 0 1.125
v 1.125 0 -1.5
v -1.5 0 -1.125
v -1.5 0 1.125
v -1.5 1.083333125 1.125
v -1.5 1.083333125 -1.125
v 1.5 1.083333125 1.125
v 1.5 0 -1.125
v 1.5 1.083333125 -1.125
v 1.125 1.083333125 -1.5
v -1.125 0 -1.5
v -1.125 1.083333125 -1.5
v 1.125 1.083333125 1.5
v -1.125 1.083333125 1.5
v 1.125 0 1.5
v -1.125 0 1.5
vt 0.140625 0.69140625
vt 0.140625 0.83203125
vt 0 0.83203125
vt 0 0.69140625
vt 0.4296875 0.7890625
vt 0.2890625 0.7890625
vt 0.2890625 0.74609375
vt 0.4296875 0.74609375
vt 0.4296875 0.7890625
vt 0.2890625 0.7890625
vt 0.2890625 0.74609375
vt 0.4296875 0.74609375
vt 0.568359375 0.953125
vt 0.546875 0.91015625
vt 0.58984375 0.91015625
vt 0.568359375 0.953125
vt 0.546875 0.91015625
vt 0.58984375 0.91015625
vt 0.568359375 0.953125
vt 0.546875 0.91015625
vt 0.58984375 0.91015625
vt 0.568359375 0.953125
vt 0.546875 0.91015625
vt 0.58984375 0.91015625
vt 0.0011203125 0.6484375
vt 0.1668484375 0.6484375
vt 0.140331953125 0.6683248828125
vt 0.193537421875 0.50390625
vt 0.193537421875 0.6696344140625
vt 0.173650078125 0.643117890625
vt 0 1
vt 0 0.8359375
vt 0.1640625 0.8359375
vt 0.1640625 1
vt 0.3660671875 0.6448873828125
vt 0.2003390625 0.6448873828125
vt 0.226855546875 0.625
vt 0.28515625 0.7890625
vt 0.14453125 0.7890625
vt 0.14453125 0.72265625
vt 0.28515625 0.72265625
vt 0.015625 0.64453125
vt 0.015625 0.578125
vt 0.046875 0.578125
vt 0.046875 0.64453125
vt 0.015625 0.64453125
vt 0.015625 0.578125
vt 0.046875 0.578125
vt 0.046875 0.64453125
vt 0.015625 0.578125
vt 0.046875 0.578125
vt 0.046875 0.64453125
vt 0.015625 0.64453125
vt 0.015625 0.578125
vt 0.046875 0.578125
vt 0.046875 0.64453125
vt 0.015625 0.64453125
vt 0.28515625 0.72265625
vt 0.28515625 0.7890625
vt 0.14453125 0.7890625
vt 0.14453125 0.72265625
vt 0.28515625 0.7890625
vt 0.14453125 0.7890625
vt 0.14453125 0.72265625
vt 0.28515625 0.72265625
vt 0.001775078125 0.6422906640625
vt 0.001775078125 0.4765625
vt 0.021662421875 0.5030790234375
vt 0.4296875 0.74609375
vt 0.4296875 0.7890625
vt 0.2890625 0.7890625
vt 0.2890625 0.74609375
vt 0.4296875 0.74609375
vt 0.4296875 0.7890625
vt 0.2890625 0.7890625
vt 0.2890625 0.74609375
vt 0.28515625 0.72265625
vt 0.28515625 0.7890625
vt 0.14453125 0.7890625
vt 0.14453125 0.72265625
vn 0 1 0
vn 0.8221922941015349 0.5692098308357431 0
vn 0 0.5692098308357431 -0.8221922941015349
vn 0.6350916065906895 0.4396786354556176 0.6350916065906895
vn -0.6350916065906895 0.4396786354556176 0.6350916065906895
vn 0.6350916065906895 0.4396786354556176 -0.6350916065906895
vn -0.6350916065906895 0.4396786354556176 -0.6350916065906895
vn 0 -1 0
vn 0 -1 0
vn 0 -1 0
vn 0 -1 0
vn 0 0 -1
vn 0.7071067811865476 0 0.7071067811865476
vn -0.7071067811865476 0 -0.7071067811865476
vn -0.7071067811865476 0 0.7071067811865476
vn 0.7071067811865476 0 -0.7071067811865476
vn 0 0 1
vn 1 0 0
vn 0 -1 0
vn 0 0.5692098308357431 0.8221922941015349
vn -0.8221922941015349 0.5692098308357431 0
vn -1 0 0
usemtl m_84609a9b-11c1-f89a-ea14-c9fd4b1cd579
f 1/1/1 2/2/1 4/3/1 3/4/1
f 2/5/2 1/6/2 11/7/2 13/8/2
f 4/9/3 2/10/3 14/11/3 16/12/3
f 1/13/4 17/14/4 11/15/4
f 3/16/5 9/17/5 18/18/5
f 2/19/6 13/20/6 14/21/6
f 4/22/7 16/23/7 10/24/7
f 7/25/8 20/26/8 8/27/8
f 6/28/9 7/29/9 15/30/9
f 7/31/10 6/32/10 5/33/10 20/34/10
f 5/35/11 6/36/11 12/37/11
f 16/38/12 14/39/12 6/40/12 15/41/12
f 17/42/13 19/43/13 5/44/13 11/45/13
f 16/46/14 15/47/14 7/48/14 10/49/14
f 8/50/15 20/51/15 18/52/15 9/53/15
f 12/54/16 6/55/16 14/56/16 13/57/16
f 19/58/17 17/59/17 18/60/17 20/61/17
f 13/62/18 11/63/18 5/64/18 12/65/18
f 20/66/19 5/67/19 19/68/19
f 17/69/20 1/70/20 3/71/20 18/72/20
f 9/73/21 3/74/21 4/75/21 10/76/21
f 8/77/22 9/78/22 10/79/22 7/80/22
o 1
v 0.796875 2 0.796875
v 0.796875 2 -0.796875
v -0.796875 2 0.796875
v -0.796875 2 -0.796875
v -1.0625 1.53125 0.796875
v -1.0625 1.84375 0.796875
v -1.0625 1.53125 -0.796875
v -1.0625 1.84375 -0.796875
v 1.0625 1.53125 0.796875
v 1.0625 1.84375 0.796875
v 1.0625 1.53125 -0.796875
v 1.0625 1.84375 -0.796875
v 0.796875 1.53125 -1.0625
v 0.796875 1.84375 -1.0625
v -0.796875 1.53125 -1.0625
v -0.796875 1.84375 -1.0625
v 0.796875 1.53125 1.0625
v 0.796875 1.84375 1.0625
v -0.796875 1.53125 1.0625
v -0.796875 1.84375 1.0625
v -0.67427875 2 0.67427875
v 0.67427875 2 0.67427875
v 0.67427875 2 -0.67427875
v -0.67427875 2 -0.67427875
v -0.6129806818181819 1.953125 -0.6129806818181819
v -0.6129806818181819 1.953125 0.6129806818181819
v 0.6129806818181819 1.953125 0.6129806818181819
v 0.6129806818181819 1.953125 -0.6129806818181819
vt 0.1015625 0.6875
vt 0 0.6875
vt 0 0.66796875
vt 0.1015625 0.66796875
vt 0.4453125 0.6171875
vt 0.4453125 0.63671875
vt 0.34375 0.63671875
vt 0.34375 0.6171875
vt 0.30078125 0.6015625
vt 0.30078125 0.62109375
vt 0.19921875 0.62109375
vt 0.19921875 0.6015625
vt 0.40625 0.61328125
vt 0.3046875 0.61328125
vt 0.3046875 0.59375
vt 0.40625 0.59375
vt 0.19921875 0.65234375
vt 0.22265625 0.65234375
vt 0.22265625 0.671875
vt 0.19921875 0.671875
vt 0.19921875 0.671875
vt 0.19921875 0.65234375
vt 0.22265625 0.65234375
vt 0.22265625 0.671875
vt 0.19921875 0.671875
vt 0.19921875 0.65234375
vt 0.22265625 0.65234375
vt 0.22265625 0.671875
vt 0.19921875 0.65234375
vt 0.22265625 0.65234375
vt 0.22265625 0.671875
vt 0.19921875 0.671875
vt 0.59678913698358 0.7380859374999995
vt 0.5863281249999994 0.7188476562499997
vt 0.60908203125 0.71875
vt 0.59678913698358 0.7380859374999995
vt 0.5863281249999994 0.7188476562499997
vt 0.60908203125 0.71875
vt 0.59678913698358 0.7380859374999995
vt 0.5863281249999994 0.7188476562499997
vt 0.60908203125 0.71875
vt 0.51953125 1
vt 0.41796875 1
vt 0.41796875 0.98046875
vt 0.51953125 0.98046875
vt 0.51953125 0.95703125
vt 0.51953125 0.9765625
vt 0.41796875 0.9765625
vt 0.41796875 0.95703125
vt 0.30078125 0.578125
vt 0.30078125 0.59765625
vt 0.19921875 0.59765625
vt 0.19921875 0.578125
vt 0.40625 0.58984375
vt 0.3046875 0.58984375
vt 0.3046875 0.5703125
vt 0.40625 0.5703125
vt 0.59678913698358 0.7380859374999995
vt 0.5863281249999994 0.7188476562499997
vt 0.60908203125 0.71875
vt 0.26953125 0.8984375
vt 0.26953125 1
vt 0.26171875 0.9921875
vt 0.26171875 0.90625
vt 0.26953125 1
vt 0.16796875 1
vt 0.17578125 0.9921875
vt 0.26171875 0.9921875
vt 0.16796875 1
vt 0.16796875 0.8984375
vt 0.17578125 0.90625
vt 0.17578125 0.9921875
vt 0.17578125 0.90625
vt 0.16796875 0.8984375
vt 0.26953125 0.8984375
vt 0.26171875 0.90625
vt 0.1796875 0.91015625
vt 0.17578125 0.90625
vt 0.26171875 0.90625
vt 0.2578125 0.91015625
vt 0.2578125 0.91015625
vt 0.26171875 0.90625
vt 0.26171875 0.9921875
vt 0.2578125 0.98828125
vt 0.26171875 0.9921875
vt 0.17578125 0.9921875
vt 0.17968750000000003 0.98828125
vt 0.2578125 0.98828125
vt 0.17968750000000003 0.98828125
vt 0.17578125 0.9921875
vt 0.17578125 0.90625
vt 0.1796875 0.91015625
vt 0.17968750000000003 0.98828125
vt 0.1796875 0.91015625
vt 0.2578125 0.91015625
vt 0.2578125 0.98828125
vn 1 0 0
vn -1 0 0
vn 0 0 1
vn 0 0 -1
vn 0.7071067811865476 0 -0.7071067811865476
vn 0.7071067811865476 0 0.7071067811865476
vn -0.7071067811865476 0 -0.7071067811865476
vn -0.7071067811865476 0 0.7071067811865476
vn 0.4522156316461346 0.7687665737984288 0.4522156316461346
vn -0.4522156316461346 0.7687665737984288 0.4522156316461346
vn -0.4522156316461346 0.7687665737984288 -0.4522156316461346
vn 0.5070201265633939 0.8619342151577697 0
vn -0.5070201265633939 0.8619342151577697 0
vn 0 0.8619342151577697 0.5070201265633939
vn 0 0.8619342151577697 -0.5070201265633939
vn 0.4522156316461346 0.7687665737984288 -0.4522156316461346
vn 0 1 0
vn 0 1 0
vn 0 1 0
vn 0 1 0
vn 0 0.7943577911783211 -0.6074501622308607
vn -0.6074501622308611 0.7943577911783208 0
vn 0 0.7943577911783211 0.6074501622308607
vn 0.6074501622308607 0.7943577911783211 0
vn 4.5279690598571884e-17 1 0
usemtl m_84609a9b-11c1-f89a-ea14-c9fd4b1cd579
f 32/81/23 30/82/23 29/83/23 31/84/23
f 25/85/24 26/86/24 28/87/24 27/88/24
f 37/89/25 38/90/25 40/91/25 39/92/25
f 36/93/26 34/94/26 33/95/26 35/96/26
f 31/97/27 33/98/27 34/99/27 32/100/27
f 38/101/28 37/102/28 29/103/28 30/104/28
f 36/105/29 35/106/29 27/107/29 28/108/29
f 25/109/30 39/110/30 40/111/30 26/112/30
f 21/113/31 38/114/31 30/115/31
f 23/116/32 26/117/32 40/118/32
f 24/119/33 36/120/33 28/121/33
f 22/122/34 21/123/34 30/124/34 32/125/34
f 26/126/35 23/127/35 24/128/35 28/129/35
f 38/130/36 21/131/36 23/132/36 40/133/36
f 24/134/37 22/135/37 34/136/37 36/137/37
f 22/138/38 32/139/38 34/140/38
f 21/141/39 22/142/39 43/143/39 42/144/39
f 22/145/40 24/146/40 44/147/40 43/148/40
f 24/149/41 23/150/41 41/151/41 44/152/41
f 41/153/42 23/154/42 21/155/42 42/156/42
f 46/157/43 41/158/43 42/159/43 47/160/43
f 47/161/44 42/162/44 43/163/44 48/164/44
f 43/165/45 44/166/45 45/167/45 48/168/45
f 45/169/46 44/170/46 41/171/46 46/172/46
f 45/173/47 46/174/47 47/175/47 48/176/47