# Made in Blockbench 5.1.4
mtllib stator.mtl

o mesh
v 1.1616116523516815 0.6714150429449554 0.25
v 1.1616116523516815 0.6714150429449554 0.75
v 0.9848349570550448 0.49463834764831854 0.25
v 0.9848349570550448 0.49463834764831854 0.75
v 1.5151650429449552 0.3178616523516815 0.24999999999999994
v 1.5151650429449552 0.3178616523516815 0.75
v 1.3383883476483185 0.14108495705504476 0.25
v 1.3383883476483185 0.14108495705504476 0.75
v 1 0.71875 0.75
v 1 0.71875 0.24999999999999994
v 1 0.4687500000000001 0.75
v 1 0.4687500000000001 0.24999999999999994
v 0.5000000000000001 0.7187500000000001 0.75
v 0.5000000000000001 0.71875 0.25
v 0.5000000000000001 0.46875000000000006 0.75
v 0.5 0.46875000000000006 0.25
v 0.5000000000000001 0.7187500000000001 0.75
v 0.5000000000000001 0.71875 0.25
v 0.5000000000000001 0.46875000000000006 0.75
v 0.5 0.46875000000000006 0.25
v 5.551115123125783e-17 0.71875 0.75
v 0 0.7187500000000001 0.25
v 5.551115123125783e-17 0.46875000000000006 0.75
v 0 0.46875000000000006 0.25
v -0.16161165235168162 0.6714150429449555 0.75
v -0.16161165235168162 0.6714150429449555 0.25
v 0.01516504294495541 0.49463834764831854 0.75
v 0.015165042944955298 0.49463834764831854 0.25
v -0.5151650429449552 0.31786165235168135 0.75
v -0.5151650429449552 0.31786165235168135 0.25
v -0.3383883476483184 0.14108495705504465 0.75
v -0.3383883476483184 0.14108495705504465 0.25
vt 0.40625 0.71875
vt 0.28125 0.71875
vt 0.28125 0.65625
vt 0.40625 0.65625
vt 0.40625 0.578125
vt 0.40625 0.640625
vt 0.28125 0.640625
vt 0.28125 0.578125
vt 0 0.875
vt 0.125 0.875
vt 0.125 1
vt 0 1
vt 0.125 0.734375
vt 0.125 0.859375
vt 0 0.859375
vt 0 0.734375
vt 0.125 0.515625
vt 0.125 0.578125
vt 0 0.578125
vt 0 0.515625
vt 0.546875 1
vt 0.421875 1
vt 0.421875 0.9375
vt 0.546875 0.9375
vt 0.625 0.5625
vt 0.5 0.5625
vt 0.5 0.5
vt 0.625 0.5
vt 0.484375 0.4375
vt 0.484375 0.5
vt 0.359375 0.5
vt 0.359375 0.4375
vt 0.40625 0.734375
vt 0.40625 0.859375
vt 0.28125 0.859375
vt 0.28125 0.734375
vt 0.125 0.71875
vt 0 0.71875
vt 0 0.59375
vt 0.125 0.59375
vt 0.34375 0.5
vt 0.34375 0.5625
vt 0.21875 0.5625
vt 0.21875 0.5
vt 0.484375 0.65625
vt 0.484375 0.78125
vt 0.421875 0.78125
vt 0.421875 0.65625
vt 0.625 0.640625
vt 0.5 0.640625
vt 0.5 0.578125
vt 0.625 0.578125
vt 0.34375 0.421875
vt 0.34375 0.484375
vt 0.21875 0.484375
vt 0.21875 0.421875
vt 0.40625 0.875
vt 0.40625 1
vt 0.28125 1
vt 0.28125 0.875
vt 0.265625 0.71875
vt 0.140625 0.71875
vt 0.140625 0.59375
vt 0.265625 0.59375
vt 0.125 0.4375
vt 0.125 0.5
vt 0 0.5
vt 0 0.4375
vt 0.5625 0.796875
vt 0.5625 0.921875
vt 0.5 0.921875
vt 0.5 0.796875
vt 0.484375 0.796875
vt 0.484375 0.921875
vt 0.421875 0.921875
vt 0.421875 0.796875
vt 0.140625 0.453125
vt 0.203125 0.453125
vt 0.203125 0.578125
vt 0.140625 0.578125
vt 0.265625 0.734375
vt 0.265625 0.859375
vt 0.140625 0.859375
vt 0.140625 0.734375
vt 0.265625 1
vt 0.140625 1
vt 0.140625 0.875
vt 0.265625 0.875
vt 0.5625 0.78125
vt 0.5 0.78125
vt 0.5 0.65625
vt 0.5625 0.65625
vt 0.484375 0.515625
vt 0.484375 0.640625
vt 0.421875 0.640625
vt 0.421875 0.515625
vn -0.7071067811865475 0.7071067811865476 8.65956056235493e-17
vn 0.7071067811865475 -0.7071067811865476 -8.65956056235493e-17
vn 0.7071067811865476 0.7071067811865475 -8.659560562354932e-17
vn -0.7071067811865476 -0.7071067811865475 8.659560562354932e-17
vn -1.224646799147353e-16 1.232595164407831e-32 -1
vn 1.224646799147353e-16 -1.232595164407831e-32 1
vn 1 2.220446049250313e-16 -4.396005698054656e-17
vn -1 -2.220446049250313e-16 -4.406877377903816e-17
vn 2.2204460492503128e-16 1 -1.1102230246251565e-16
vn 1.1102230246251565e-16 -1 -1.232595164407831e-32
vn 1.1442377452219642e-17 -3.697785493223493e-32 1
vn -6.695352868347747e-17 2.465190328815662e-32 -1
vn 1 2.220446049250313e-16 3.454456595364217e-17
vn -1 -2.7755575615628914e-16 -4.406877377903816e-17
vn -1.1102230246251568e-16 1 -1.1102230246251564e-16
vn 0 -1 0
vn 1.1442377452219642e-17 -3.697785493223493e-32 1
vn -1.1442377452219642e-17 0 -1
vn 0.7071067811865476 0.7071067811865475 -8.659560562354932e-17
vn -0.7071067811865476 -0.7071067811865475 8.659560562354932e-17
vn -0.7071067811865481 0.7071067811865469 8.659560562354938e-17
vn 0.7071067811865476 -0.7071067811865475 -8.659560562354933e-17
vn 4.7077455134521524e-18 3.9252311467094274e-17 1
vn -4.396005698054655e-17 7.850462293418875e-17 -1
usemtl m_50ab2a69-2989-37ac-4e5b-dfc3d7ba3447
f 2/1/1 1/2/1 3/3/1 4/4/1
f 7/5/2 5/6/2 6/7/2 8/8/2
f 5/9/3 1/10/3 2/11/3 6/12/3
f 4/13/4 3/14/4 7/15/4 8/16/4
f 3/17/5 1/18/5 5/19/5 7/20/5
f 6/21/6 2/22/6 4/23/6 8/24/6
f 10/25/7 9/26/7 11/27/7 12/28/7
f 15/29/8 13/30/8 14/31/8 16/32/8
f 13/33/9 9/34/9 10/35/9 14/36/9
f 12/37/10 11/38/10 15/39/10 16/40/10
f 11/41/11 9/42/11 13/43/11 15/44/11
f 14/45/12 10/46/12 12/47/12 16/48/12
f 18/49/13 17/50/13 19/51/13 20/52/13
f 23/53/14 21/54/14 22/55/14 24/56/14
f 21/57/15 17/58/15 18/59/15 22/60/15
f 20/61/16 19/62/16 23/63/16 24/64/16
f 19/65/17 17/66/17 21/67/17 23/68/17
f 22/69/18 18/70/18 20/71/18 24/72/18
f 26/73/19 25/74/19 27/75/19 28/76/19
f 31/77/20 29/78/20 30/79/20 32/80/20
f 29/81/21 25/82/21 26/83/21 30/84/21
f 28/85/22 27/86/22 31/87/22 32/88/22
f 27/89/23 25/90/23 29/91/23 31/92/23
f 30/93/24 26/94/24 28/95/24 32/96/24